<svg width="40" height="41" viewBox="0 0 40 41" fill="none" xmlns="http://www.w3.org/2000/svg">
<rect x="-0.000335693" y="0.104004" width="40" height="40" rx="12" fill="#F9FAFB"/>
<path d="M18.984 12.022C16.3122 12.3657 13.9567 14.022 12.7458 16.4126C12.3317 17.2329 12.0661 18.0649 11.9372 18.9595C11.8551 19.5376 11.8551 20.6704 11.9372 21.2485C12.3161 23.8774 13.9528 26.1626 16.3083 27.3579C17.5036 27.9634 18.6364 28.2329 19.9997 28.2329C21.3551 28.2329 22.4762 27.9673 23.6715 27.3696C24.4606 26.9751 25.0583 26.5415 25.7145 25.8931C27.0036 24.6235 27.8161 23.0142 28.0661 21.2329C28.1481 20.647 28.1481 19.561 28.0661 18.9751C27.8708 17.5806 27.2848 16.1978 26.4333 15.104C26.1637 14.7603 25.5114 14.0923 25.1715 13.8149C23.9958 12.8462 22.5036 12.2095 20.9762 12.0181C20.5934 11.9712 19.359 11.9751 18.984 12.022ZM21.5231 13.4282C23.8317 13.9517 25.7418 15.6743 26.484 17.9126C26.7692 18.7642 26.8122 19.0649 26.8122 20.104C26.8122 21.1431 26.7692 21.4438 26.484 22.2954C25.6754 24.7329 23.4528 26.5649 20.9098 26.897L20.6637 26.9282V20.104V13.2798L20.9098 13.311C21.0426 13.3306 21.32 13.3813 21.5231 13.4282Z" fill="#A4CE95"/>
</svg>
