<svg width="25" height="24" viewBox="0 0 25 24" fill="none" xmlns="http://www.w3.org/2000/svg">
<path fill-rule="evenodd" clip-rule="evenodd" d="M17.8462 4.41C17.8462 3.08 18.9262 2 20.2562 2C21.5862 2 22.6662 3.08 22.6662 4.41C22.6662 5.74 21.5862 6.82 20.2562 6.82C18.9262 6.82 17.8462 5.74 17.8462 4.41ZM13.9965 14.7593L16.8865 11.0303L16.8465 11.0503C17.0065 10.8303 17.0365 10.5503 16.9265 10.3003C16.8175 10.0503 16.5765 9.8803 16.3175 9.8603C16.0465 9.8303 15.7775 9.9503 15.6165 10.1703L13.1975 13.3003L10.4265 11.1203C10.2565 10.9903 10.0565 10.9393 9.8565 10.9603C9.6575 10.9903 9.4775 11.0993 9.3565 11.2593L6.3975 15.1103L6.3365 15.2003C6.1665 15.5193 6.2465 15.9293 6.5465 16.1503C6.6865 16.2403 6.8365 16.3003 7.0065 16.3003C7.2375 16.3103 7.4565 16.1893 7.5965 16.0003L10.1065 12.7693L12.9565 14.9103L13.0465 14.9693C13.3665 15.1393 13.7665 15.0603 13.9965 14.7593ZM16.1165 3.7803C16.0765 4.0303 16.0565 4.2803 16.0565 4.5303C16.0565 6.7803 17.8765 8.5993 20.1165 8.5993C20.3665 8.5993 20.6065 8.5703 20.8565 8.5303V16.5993C20.8565 19.9903 18.8565 22.0003 15.4565 22.0003H8.0675C4.6665 22.0003 2.6665 19.9903 2.6665 16.5993V9.2003C2.6665 5.8003 4.6665 3.7803 8.0675 3.7803H16.1165Z" fill="#1D3A70"/>
</svg>
