<svg width="40" height="41" viewBox="0 0 40 41" fill="none" xmlns="http://www.w3.org/2000/svg">
<rect x="-0.000335693" y="0.104004" width="40" height="40" rx="12" fill="#F9FAFB"/>
<path d="M19.9992 24.2277C23.4031 24.2277 26.3804 25.5006 27.9997 27.4L26.2875 28.104C24.9694 26.7462 22.6456 25.8442 19.9992 25.8442C17.3528 25.8442 15.029 26.7462 13.7109 28.104L11.9997 27.3992C13.6189 25.4998 16.5953 24.2277 19.9992 24.2277ZM19.9992 12.104C21.2318 12.104 22.414 12.5298 23.2856 13.2876C24.1572 14.0455 24.6468 15.0734 24.6468 16.1452V18.57C24.6468 19.6113 24.1844 20.6125 23.356 21.3647C22.5277 22.1168 21.3974 22.5619 20.2009 22.6071L19.9992 22.6112C18.7666 22.6112 17.5844 22.1854 16.7128 21.4275C15.8412 20.6697 15.3515 19.6418 15.3515 18.57V16.1452C15.3516 15.1038 15.814 14.1027 16.6423 13.3505C17.4707 12.5983 18.601 12.1532 19.7975 12.108L19.9992 12.104ZM19.9992 13.7205C19.2879 13.7205 18.6035 13.9568 18.086 14.3811C17.5685 14.8054 17.257 15.3856 17.2153 16.003L17.2106 16.1452V18.57C17.2099 19.2011 17.4923 19.8076 17.9977 20.2607C18.5031 20.7137 19.1918 20.9775 19.9174 20.996C20.6429 21.0145 21.3482 20.7863 21.8833 20.3598C22.4185 19.9334 22.7413 19.3423 22.7831 18.7122L22.7878 18.57V16.1452C22.7878 15.5021 22.494 14.8854 21.971 14.4307C21.4481 13.976 20.7388 13.7205 19.9992 13.7205Z" fill="#203C71"/>
</svg>
