<svg width="40" height="41" viewBox="0 0 40 41" fill="none" xmlns="http://www.w3.org/2000/svg">
<rect x="-0.000335693" y="0.104004" width="40" height="40" rx="12" fill="#F9FAFB"/>
<path d="M12.5879 13.6351L12.5882 13.6346L14.0114 12.6626L13.9705 12.5183C13.9708 12.5182 13.971 12.5181 13.9713 12.5181C14.017 12.5053 14.0901 12.4971 14.168 12.4906C14.2515 12.4837 14.3565 12.4778 14.4744 12.4729C14.7107 12.463 15.0037 12.4567 15.2925 12.4545C15.5812 12.4523 15.867 12.4541 16.0888 12.4605C16.1994 12.4636 16.2958 12.468 16.3691 12.4737C16.4056 12.4765 16.4385 12.4799 16.4656 12.4839C16.4791 12.4859 16.4931 12.4884 16.5064 12.4916C16.5172 12.4942 16.5377 12.4996 16.5585 12.5107L16.5585 12.5107L16.5598 12.5114C16.7007 12.5882 16.7788 12.75 16.8089 12.891C16.8395 13.0338 16.8335 13.2132 16.7395 13.3466L16.7393 13.347C16.703 13.3981 16.6598 13.4531 16.5928 13.4968C16.526 13.5403 16.448 13.5647 16.3529 13.5802C16.1699 13.61 15.8726 13.6134 15.3551 13.6134C14.7666 13.6134 14.4638 13.6211 14.2645 13.6659C14.0858 13.7061 13.9941 13.7749 13.8326 13.9363C13.6708 14.1001 13.6019 14.1918 13.5616 14.3725C13.5167 14.5738 13.509 14.8807 13.509 15.479C13.509 16.0219 13.5068 16.333 13.4718 16.5202C13.4534 16.6189 13.4232 16.7008 13.3672 16.768C13.3128 16.8335 13.2448 16.8713 13.185 16.9017C12.9619 17.0159 12.692 16.9621 12.5075 16.7926L12.5075 16.7927L12.503 16.7882L12.3936 16.6788L12.3497 16.6349V16.5728V15.4595C12.3497 14.8573 12.3543 14.5096 12.386 14.2613C12.4192 14.0017 12.4823 13.8483 12.5879 13.6351Z" fill="#3B3486" stroke="#3B3486" stroke-width="0.3"/>
<path d="M23.5036 12.647L23.4277 12.5176C23.4492 12.5049 23.4707 12.4988 23.4817 12.4959C23.4952 12.4924 23.5094 12.4896 23.5229 12.4874C23.55 12.483 23.5827 12.4793 23.6188 12.4762C23.6913 12.47 23.7866 12.4652 23.8959 12.4616C24.1151 12.4544 24.3981 12.4518 24.6846 12.4535C24.9713 12.4552 25.2631 12.4612 25.5001 12.4713C25.6185 12.4763 25.7243 12.4824 25.8094 12.4895C25.8895 12.4963 25.9631 12.5048 26.0106 12.5176C26.3943 12.6188 26.6945 12.7976 27.0003 13.1034C27.3059 13.409 27.4847 13.709 27.5859 14.0925C27.5987 14.1397 27.6074 14.2131 27.6143 14.2931C27.6215 14.3778 27.6278 14.4829 27.633 14.6004C27.6434 14.8358 27.6499 15.1255 27.6521 15.4105C27.6543 15.6953 27.6522 15.977 27.6454 16.196C27.642 16.3052 27.6373 16.4006 27.6312 16.4737C27.6281 16.5101 27.6246 16.543 27.6202 16.5704C27.6171 16.5902 27.6106 16.6297 27.5931 16.6627L27.5931 16.6627L27.5923 16.6641C27.5154 16.805 27.3537 16.8831 27.2126 16.9133C27.0699 16.9438 26.8904 16.9378 26.757 16.8438L26.7567 16.8436C26.7055 16.8074 26.6505 16.7641 26.6069 16.6971C26.5634 16.6304 26.539 16.5524 26.5235 16.4572C26.4937 16.2742 26.4903 15.977 26.4903 15.4595C26.4903 14.8709 26.4826 14.5681 26.4378 14.3689C26.3976 14.1901 26.3287 14.0983 26.167 13.9366C26.0053 13.7749 25.9136 13.7061 25.7348 13.6659C25.5356 13.6211 25.2327 13.6134 24.6442 13.6134C24.1267 13.6134 23.8294 13.61 23.6465 13.5802C23.5513 13.5647 23.4733 13.5403 23.4066 13.4968C23.3396 13.4531 23.2963 13.3981 23.2601 13.347L23.2601 13.347L23.2595 13.3461C23.1684 13.2155 23.1608 13.0392 23.189 12.8979C23.2168 12.7582 23.2909 12.5971 23.4282 12.5173L23.5036 12.647ZM23.5036 12.647C23.6168 12.5806 25.7145 12.5923 25.9723 12.6626L23.3825 13.2603C23.2653 13.0923 23.3356 12.7446 23.5036 12.647Z" fill="#3B3486" stroke="#3B3486" stroke-width="0.3"/>
<path d="M17.4964 18.4289L17.4964 18.4288L17.6057 18.3194L17.6497 18.2755V18.2134V17.604V16.9946V16.931L17.6039 16.8867L17.4909 16.7777L17.4906 16.7773L17.3864 16.8853C17.2497 16.7524 17.0192 16.7173 16.8669 16.8032L17.4964 18.4289ZM17.4964 18.4289L17.4918 18.4332M17.4964 18.4289L17.4918 18.4332M17.4918 18.4332C17.3072 18.6028 17.0373 18.6565 16.8141 18.5422M17.4918 18.4332L16.8141 18.5422M16.8141 18.5422L16.8825 18.4087L16.8141 18.5422Z" fill="#3B3486" stroke="#3B3486" stroke-width="0.3"/>
<path d="M19.8419 18.8141L19.8419 18.8142C19.8415 18.8668 19.8413 18.9179 19.841 18.9676C19.8358 19.8661 19.8332 20.3001 19.8058 20.5255C19.7913 20.6449 19.7725 20.6744 19.7665 20.6818C19.7592 20.6908 19.7536 20.6941 19.6793 20.7295C19.6192 20.7559 19.5406 20.7744 19.5114 20.7744C19.394 20.7744 19.272 20.8459 19.189 20.9331C19.0685 21.0541 18.994 21.1983 18.9947 21.3572C18.9954 21.5165 19.0716 21.6617 19.1944 21.7844L19.1962 21.7863L19.1963 21.7863C19.197 21.7869 19.1977 21.7876 19.1984 21.7883C19.2514 21.8395 19.3096 21.8957 19.4012 21.9193C19.4775 21.9389 19.57 21.9331 19.6817 21.9261C19.684 21.926 19.6864 21.9259 19.6887 21.9257L19.6904 21.9256L19.6904 21.9256C20.2213 21.8864 20.6477 21.5917 20.8738 21.1092L20.874 21.1087L20.9756 20.8899L20.9893 20.8603L20.9895 20.8277L21.0012 18.9646L21.0012 18.9644L19.8419 18.8141ZM19.8419 18.8141L19.8419 18.8001C19.8477 17.9075 19.8507 17.4521 19.863 17.2098C19.8691 17.0903 19.8779 17.0083 19.8958 16.9478C19.9173 16.8746 19.9512 16.8365 19.9785 16.8079C20.0098 16.772 20.0473 16.7386 20.0827 16.7119C20.116 16.6868 20.1575 16.6599 20.1982 16.6444C20.4719 16.5305 20.8 16.6493 20.9337 16.9141L19.8419 18.8141Z" fill="#3B3486" stroke="#3B3486" stroke-width="0.3"/>
<path d="M23.2158 18.3056L23.17 18.2614V18.1977V17.6235C23.17 17.4568 23.1749 17.302 23.183 17.1822C23.187 17.1226 23.192 17.0698 23.1978 17.0278C23.2006 17.007 23.204 16.9868 23.208 16.9688C23.211 16.9558 23.2167 16.9322 23.2282 16.909C23.2517 16.8599 23.2942 16.8161 23.3259 16.787C23.3623 16.7535 23.406 16.7201 23.4489 16.6946C23.5366 16.6395 23.6277 16.603 23.728 16.5986C23.8288 16.5942 23.9223 16.623 24.013 16.6695C24.069 16.698 24.1281 16.7312 24.1775 16.7798C24.2306 16.8321 24.265 16.8943 24.2868 16.97C24.3259 17.1051 24.3294 17.3063 24.3294 17.6157V18.1977V18.2614L24.2835 18.3056L24.1712 18.4141C24.0137 18.5711 23.8223 18.6431 23.6135 18.5936L23.6135 18.5937L23.6095 18.5926C23.5572 18.5787 23.5033 18.549 23.4597 18.5202C23.414 18.4902 23.3672 18.453 23.3282 18.4141L23.2158 18.3056Z" fill="#3B3486" stroke="#3B3486" stroke-width="0.3"/>
<path d="M16.6719 22.6142L16.6719 22.6142L16.6725 22.6135C16.7212 22.5626 16.7738 22.5167 16.8445 22.488C16.9136 22.4598 16.9857 22.4539 17.0622 22.4539C17.1809 22.4539 17.2862 22.4599 17.3996 22.536C17.4955 22.6003 17.5924 22.7129 17.7317 22.8785L17.7317 22.8785L17.7326 22.8796C18.4062 23.6971 19.1979 24.0929 19.9789 24.0965C20.76 24.1002 21.5595 23.7116 22.2487 22.9013L22.2491 22.9009C22.3325 22.8035 22.4154 22.7116 22.4821 22.6419C22.5153 22.6072 22.5457 22.5767 22.5707 22.5534C22.5831 22.5419 22.5958 22.5307 22.6078 22.5212L22.6082 22.5209C22.6158 22.5149 22.6379 22.4974 22.6657 22.4869L22.6657 22.4868L22.671 22.4851C22.7053 22.4736 22.7538 22.4666 22.7952 22.4621C22.8409 22.4572 22.8941 22.4539 22.945 22.4539C23.2404 22.4539 23.4556 22.6714 23.4959 22.9581L23.4959 22.9581L23.4964 22.9621C23.5136 23.1144 23.463 23.2577 23.3544 23.4184C23.2479 23.5761 23.0746 23.7665 22.8204 24.0188C22.231 24.6082 21.6584 24.9592 20.9581 25.1546C20.7651 25.2088 20.4358 25.2392 20.1166 25.2471C19.7971 25.2549 19.4615 25.2408 19.2538 25.196C18.4826 25.0367 17.7972 24.645 17.1589 24.0026L17.1588 24.0026C16.9142 23.756 16.7459 23.5685 16.642 23.4128C16.5364 23.2547 16.4856 23.1124 16.503 22.9617L16.503 22.9617L16.5033 22.9595C16.5195 22.8351 16.5861 22.705 16.6719 22.6142Z" fill="#3B3486" stroke="#3B3486" stroke-width="0.3"/>
<path d="M16.5598 27.6966L16.5598 27.6966C16.7007 27.6197 16.7788 27.458 16.809 27.3169C16.8395 27.1742 16.8335 26.9947 16.7395 26.8613L16.7393 26.861C16.703 26.8098 16.6598 26.7548 16.5928 26.7112C16.526 26.6677 16.448 26.6433 16.3529 26.6278C16.1699 26.598 15.8726 26.5946 15.3551 26.5946C14.4592 26.5946 14.3797 26.5847 14.2155 26.5257C13.9708 26.4336 13.7388 26.2225 13.6229 25.9837L13.6226 25.9831L13.6226 25.9831L13.5279 25.7905L13.509 24.738L13.509 24.738L13.4895 23.6481L13.4883 23.5819L13.4385 23.5382L13.3104 23.4256C13.3103 23.4255 13.3102 23.4253 13.31 23.4252C13.115 23.2516 12.8467 23.2293 12.6155 23.355L12.6872 23.4868M16.5598 27.6966L13.2106 23.5375C13.0661 23.4086 12.8669 23.3891 12.6872 23.4868M16.5598 27.6966L16.5567 27.6982C16.5241 27.715 16.4848 27.7211 16.4657 27.724C16.4387 27.7281 16.4061 27.7315 16.37 27.7344C16.2975 27.7402 16.2024 27.7447 16.0935 27.7481C15.875 27.7548 15.5939 27.7571 15.3098 27.7554C15.0257 27.7537 14.7371 27.7479 14.5037 27.7384C14.3872 27.7336 14.2833 27.7279 14.2001 27.7211C14.1217 27.7147 14.0489 27.7065 14.003 27.6939L14.0426 27.5493L14.0042 27.6943C13.2462 27.4932 12.6112 26.8636 12.4134 26.1155M16.5598 27.6966L12.5583 26.0766M12.6872 23.4868L12.6166 23.3544C12.5751 23.3765 12.5342 23.4063 12.5 23.4368C12.4677 23.4655 12.4307 23.5043 12.407 23.5477M12.6872 23.4868C12.6286 23.518 12.5622 23.5766 12.5387 23.6196C12.4723 23.7407 12.4879 25.8188 12.5583 26.0766M12.407 23.5477L12.5387 23.6196L12.4072 23.5475C12.4072 23.5476 12.4071 23.5476 12.407 23.5477ZM12.407 23.5477C12.3888 23.5812 12.3822 23.6214 12.3791 23.6406C12.3748 23.6678 12.3712 23.7006 12.3681 23.7368C12.362 23.8095 12.3574 23.9046 12.354 24.0136C12.3471 24.2321 12.345 24.5134 12.3472 24.798C12.3494 25.0827 12.3559 25.3723 12.3664 25.6076C12.3716 25.7251 12.3778 25.8302 12.3851 25.9148C12.3919 25.9948 12.4006 26.0683 12.4134 26.1155M12.4134 26.1155C12.4133 26.1153 12.4133 26.1151 12.4132 26.1149L12.5583 26.0766M12.4134 26.1155C12.4134 26.1157 12.4135 26.1159 12.4135 26.1161L12.5583 26.0766" fill="#3B3486" stroke="#3B3486" stroke-width="0.3"/>
<path d="M26.7567 23.3644L26.757 23.3641C26.8904 23.2701 27.0699 23.2642 27.2127 23.2947C27.3537 23.3248 27.5154 23.4029 27.5923 23.5438L27.5923 23.5438L27.5939 23.5469C27.6108 23.5795 27.6169 23.6188 27.6198 23.6379C27.6238 23.6649 27.6272 23.6975 27.6301 23.7336C27.6359 23.8062 27.6404 23.9012 27.6438 24.0102C27.6505 24.2286 27.6528 24.5097 27.6511 24.7938C27.6494 25.078 27.6436 25.3665 27.6341 25.5999C27.6293 25.7165 27.6236 25.8204 27.6168 25.9035C27.6104 25.982 27.6022 26.0548 27.5896 26.1006L27.445 26.061L27.59 26.0992C27.3888 26.8622 26.7585 27.4926 25.9957 27.6941C25.9497 27.7066 25.8773 27.7147 25.7993 27.7211C25.7161 27.7279 25.6122 27.7336 25.4956 27.7384C25.2622 27.7479 24.9737 27.7537 24.6895 27.7554C24.4055 27.7571 24.1243 27.7548 23.9059 27.7481C23.7969 27.7447 23.7019 27.7402 23.6293 27.7344C23.5932 27.7315 23.5606 27.7281 23.5336 27.724C23.5145 27.7211 23.4753 27.715 23.4426 27.6982L23.4426 27.6982L23.4396 27.6966C23.2987 27.6197 23.2205 27.458 23.1904 27.3169C23.1599 27.1742 23.1659 26.9947 23.2599 26.8613L23.2599 26.8613L23.2601 26.861C23.2963 26.8098 23.3396 26.7548 23.4066 26.7112C23.4733 26.6677 23.5513 26.6433 23.6465 26.6278C23.8294 26.598 24.1267 26.5946 24.6442 26.5946C25.2327 26.5946 25.5356 26.5869 25.7348 26.5421C25.9136 26.5019 26.0053 26.433 26.167 26.2713C26.3287 26.1096 26.3976 26.0179 26.4378 25.8391C26.4826 25.6399 26.4903 25.337 26.4903 24.7485C26.4903 24.231 26.4937 23.9337 26.5235 23.7507C26.539 23.6556 26.5634 23.5776 26.6069 23.5108C26.6505 23.4439 26.7056 23.4006 26.7567 23.3644Z" fill="#3B3486" stroke="#3B3486" stroke-width="0.3"/>
</svg>
