<svg width="48" height="49" viewBox="0 0 48 49" fill="none" xmlns="http://www.w3.org/2000/svg">
<rect x="-0.000488281" y="0.729004" width="48" height="48" rx="12" fill="#F9FAFB"/>
<g clip-path="url(#clip0_183_1069)">
<path d="M17.2729 16.9196C13.0495 19.1978 12.1917 19.6759 12.1073 19.8071C11.9995 19.9571 11.9995 19.9899 11.9995 21.3493C11.9995 22.9056 12.0136 22.9712 12.3323 23.1446C12.4823 23.2243 12.8948 23.229 22.4995 23.229C32.1042 23.229 32.5167 23.2243 32.6667 23.1446C32.9855 22.9712 32.9995 22.9009 32.9995 21.3634C32.9995 19.8962 32.9948 19.854 32.7558 19.6337C32.6995 19.5774 30.412 18.3306 27.6792 16.8587C23.4089 14.5571 22.6823 14.1821 22.5229 14.1868C22.3683 14.1868 21.4823 14.6509 17.2729 16.9196Z" fill="#1D2734"/>
<path d="M15.3417 24.054C15.2573 24.0962 15.1448 24.1993 15.0933 24.2837C15.0042 24.429 14.9995 24.5134 14.9995 27.3353C14.9995 30.0587 15.0042 30.2462 15.0839 30.3962C15.2479 30.7009 15.3651 30.729 16.4995 30.729C17.6339 30.729 17.7511 30.7009 17.9151 30.3962C17.9948 30.2462 17.9995 30.0587 17.9995 27.354C17.9995 24.6493 17.9948 24.4618 17.9151 24.3118C17.7511 24.0071 17.6339 23.979 16.4995 23.979C15.6745 23.979 15.4636 23.9931 15.3417 24.054Z" fill="#1D2734"/>
<path d="M21.3417 24.054C21.2573 24.0962 21.1448 24.1993 21.0933 24.2837C21.0042 24.429 20.9995 24.5134 20.9995 27.3353C20.9995 30.0587 21.0042 30.2462 21.0839 30.3962C21.2292 30.6634 21.412 30.729 22.012 30.729H22.5323L22.5604 30.1993C22.6261 29.0649 23.0573 27.7899 23.7558 26.6603L23.9995 26.2665V25.3712C23.9995 23.9743 24.0042 23.979 22.4995 23.979C21.6745 23.979 21.4636 23.9931 21.3417 24.054Z" fill="#1D2734"/>
<path d="M28.9026 24.804C28.1433 24.9399 27.2901 25.2962 26.5776 25.7743C26.1276 26.0743 25.3448 26.8571 25.0448 27.3071C24.5526 28.0384 24.2104 28.8728 24.0698 29.6696C23.9761 30.2087 23.9761 31.2493 24.0698 31.7884C24.4964 34.2259 26.5026 36.2321 28.9401 36.6587C29.4792 36.7524 30.5198 36.7524 31.0589 36.6587C32.8823 36.3399 34.5276 35.1071 35.3714 33.4337C35.8167 32.5524 35.9995 31.7603 35.9995 30.729C35.9995 29.4399 35.6761 28.3899 34.9542 27.3071C34.6542 26.8571 33.8714 26.0743 33.4214 25.7743C32.6901 25.2821 31.8558 24.9399 31.0589 24.7993C30.5386 24.7103 29.4136 24.7103 28.9026 24.804ZM30.4073 27.8696C30.6839 28.0384 30.7214 28.1743 30.7401 29.1165L30.7589 29.9696L31.612 29.9884C32.5542 30.0071 32.6901 30.0446 32.8589 30.3212C32.9854 30.5228 32.9854 30.9259 32.8636 31.1228C32.6808 31.4181 32.5542 31.4509 31.612 31.4696L30.7589 31.4884L30.7448 32.3415C30.7261 33.1149 30.7167 33.204 30.6229 33.354C30.4823 33.5837 30.2901 33.6821 29.9901 33.6821C29.6901 33.6821 29.4792 33.5696 29.3573 33.3446C29.2917 33.2181 29.2729 33.0353 29.2589 32.3415L29.2401 31.4884L28.387 31.4696C27.4448 31.4509 27.3089 31.4134 27.1401 31.1368C27.0136 30.9353 27.0136 30.5228 27.1401 30.3212C27.3089 30.0446 27.4448 30.0071 28.387 29.9884L29.2401 29.9696L29.2589 29.1165C29.2729 28.4228 29.2917 28.2399 29.3573 28.1134C29.4792 27.8884 29.6901 27.7759 29.9995 27.7759C30.1729 27.7759 30.3089 27.804 30.4073 27.8696Z" fill="#004A78"/>
<path d="M12.3417 31.554C12.2573 31.5962 12.1448 31.6993 12.0933 31.7837C12.0042 31.9243 11.9995 32.0181 11.9995 33.3353C11.9995 34.9056 12.0136 34.9712 12.3323 35.1446C12.4823 35.2243 12.7589 35.229 18.2433 35.229C21.412 35.229 23.9995 35.2196 23.9995 35.2103C23.9995 35.1962 23.887 35.0228 23.7464 34.8212C23.4229 34.3478 23.062 33.6306 22.8792 33.0821C22.7339 32.6415 22.5464 31.8165 22.5464 31.6009V31.479H17.5214C13.0073 31.479 12.4776 31.4884 12.3417 31.554Z" fill="#1D2734"/>
</g>
<defs>
<clipPath id="clip0_183_1069">
<rect width="24" height="24" fill="white" transform="translate(11.9995 12.729)"/>
</clipPath>
</defs>
</svg>
