<svg width="40" height="41" viewBox="0 0 40 41" fill="none" xmlns="http://www.w3.org/2000/svg">
<rect x="-0.000335693" y="0.104004" width="40" height="40" rx="12" fill="#F9FAFB"/>
<path d="M26.2219 18.504H27.1108C27.3465 18.504 27.5726 18.5883 27.7393 18.7383C27.906 18.8883 27.9997 19.0918 27.9997 19.304V27.304C27.9997 27.5162 27.906 27.7197 27.7393 27.8697C27.5726 28.0197 27.3465 28.104 27.1108 28.104H12.8886C12.6528 28.104 12.4267 28.0197 12.26 27.8697C12.0933 27.7197 11.9997 27.5162 11.9997 27.304V19.304C11.9997 19.0918 12.0933 18.8883 12.26 18.7383C12.4267 18.5883 12.6528 18.504 12.8886 18.504H13.7774V17.704C13.7774 16.9686 13.9384 16.2404 14.2511 15.561C14.5638 14.8816 15.0221 14.2642 15.5999 13.7442C16.1777 13.2242 16.8636 12.8117 17.6185 12.5303C18.3734 12.2489 19.1826 12.104 19.9997 12.104C20.8168 12.104 21.6259 12.2489 22.3808 12.5303C23.1357 12.8117 23.8217 13.2242 24.3994 13.7442C24.9772 14.2642 25.4356 14.8816 25.7482 15.561C26.0609 16.2404 26.2219 16.9686 26.2219 17.704V18.504ZM13.7774 20.104V26.504H26.2219V20.104H13.7774ZM19.1108 21.704H20.8886V24.904H19.1108V21.704ZM24.4441 18.504V17.704C24.4441 16.6431 23.9759 15.6257 23.1424 14.8756C22.3089 14.1254 21.1784 13.704 19.9997 13.704C18.8209 13.704 17.6905 14.1254 16.857 14.8756C16.0235 15.6257 15.5552 16.6431 15.5552 17.704V18.504H24.4441Z" fill="#FFB9AA"/>
</svg>
