<svg width="40" height="41" viewBox="0 0 40 41" fill="none" xmlns="http://www.w3.org/2000/svg">
<rect x="-0.000335693" y="0.104004" width="40" height="40" rx="12" fill="#F9FAFB"/>
<path d="M14.5663 25.5125V23.0792C14.5663 22.2708 15.1997 21.5458 16.0997 21.5458C16.908 21.5458 17.633 22.1792 17.633 23.0792V25.4208C17.633 27.0458 16.283 28.3959 14.658 28.3959C13.033 28.3959 11.683 27.0375 11.683 25.4208V20.2875C11.5913 15.6042 15.2913 11.8125 19.9747 11.8125C24.658 11.8125 28.3496 15.6042 28.3496 20.1958V25.3292C28.3496 26.9542 26.9997 28.3042 25.3747 28.3042C23.7497 28.3042 22.3997 26.9542 22.3997 25.3292V22.9875C22.3997 22.1792 23.033 21.4542 23.933 21.4542C24.7413 21.4542 25.4663 22.0875 25.4663 22.9875V25.5125" stroke="#E26EE5" stroke-width="1.2" stroke-linecap="round" stroke-linejoin="round"/>
<path d="M22.9413 17.704H22.2663C22.083 17.704 21.908 17.8123 21.8247 17.9707L21.1997 19.2207C21.108 19.404 20.8497 19.404 20.758 19.2207L19.2247 16.1624C19.133 15.9874 18.883 15.979 18.7913 16.154L18.0913 17.4457C18.008 17.604 17.8413 17.704 17.658 17.704H17.0497" stroke="#E26EE5" stroke-width="1.2" stroke-linecap="round" stroke-linejoin="round"/>
</svg>
