<svg width="25" height="24" viewBox="0 0 25 24" fill="none" xmlns="http://www.w3.org/2000/svg">
<path d="M18.25 5H6.25C4.59315 5 3.25 6.34315 3.25 8V16C3.25 17.6569 4.59315 19 6.25 19H18.25C19.9069 19 21.25 17.6569 21.25 16V8C21.25 6.34315 19.9069 5 18.25 5Z" fill="#1D3A70"/>
<path d="M3.25 10H21.25M7.25 15H7.26M11.25 15H13.25M6.25 5H18.25C19.9069 5 21.25 6.34315 21.25 8V16C21.25 17.6569 19.9069 19 18.25 19H6.25C4.59315 19 3.25 17.6569 3.25 16V8C3.25 6.34315 4.59315 5 6.25 5Z" stroke="white" stroke-width="1.5" stroke-linecap="round" stroke-linejoin="round"/>
</svg>
