<svg width="89" height="89" viewBox="0 0 89 89" fill="none" xmlns="http://www.w3.org/2000/svg">
<circle cx="44.4995" cy="44.1948" r="44" fill="white"/>
<circle cx="44.4995" cy="44.1948" r="36" fill="#F3F4F6"/>
<path d="M54.8512 27.7292L22.7938 35.1951C21.5267 35.4902 20.7387 36.7565 21.0338 38.0236L25.426 56.883C25.7211 58.1501 26.9875 58.938 28.2546 58.6429L60.312 51.1771C61.5791 50.882 62.367 49.6156 62.0719 48.3485L57.6797 29.4891C57.3846 28.222 56.1183 27.4341 54.8512 27.7292Z" fill="#004A78"/>
<path d="M27.7208 58.932C27.1381 58.931 26.5727 58.7334 26.1163 58.3712C25.6599 58.0089 25.3391 57.5032 25.2058 56.936L20.8132 38.0749C20.6581 37.4085 20.7734 36.7079 21.1339 36.1265C21.4944 35.545 22.0706 35.1301 22.7364 34.9727L54.8005 27.5052C55.4677 27.3503 56.1692 27.4666 56.7508 27.8284C57.3324 28.1903 57.7467 28.7682 57.9026 29.4352L62.2953 48.2963C62.3726 48.6264 62.384 48.9686 62.329 49.3032C62.2739 49.6377 62.1534 49.9581 61.9743 50.2461C61.7952 50.534 61.5612 50.7838 61.2854 50.9811C61.0097 51.1785 60.6978 51.3195 60.3675 51.3962L28.308 58.866C28.1154 58.9103 27.9184 58.9324 27.7208 58.932ZM55.3877 27.8921C55.2251 27.892 55.0632 27.9111 54.9051 27.949L22.8456 35.4165C22.5732 35.4793 22.3158 35.5952 22.0882 35.7575C21.8606 35.9199 21.6672 36.1256 21.5192 36.3628C21.3712 36.6 21.2715 36.8641 21.2257 37.1399C21.1799 37.4157 21.189 37.6979 21.2524 37.9702L25.6496 56.8358C25.7775 57.3845 26.1175 57.8601 26.5953 58.1587C27.073 58.4573 27.6495 58.5545 28.1987 58.429L60.256 50.9615C60.5283 50.8985 60.7855 50.7824 61.013 50.6199C61.2404 50.4575 61.4336 50.2518 61.5816 50.0147C61.7295 49.7775 61.8293 49.5136 61.8752 49.2379C61.9211 48.9622 61.9123 48.6801 61.8492 48.4078L57.4588 29.5376C57.3495 29.0701 57.0855 28.6531 56.7096 28.3545C56.3336 28.0558 55.8678 27.8928 55.3877 27.8921Z" fill="white"/>
<path d="M58.5072 33.0428L21.8613 41.5773L22.947 46.2389L59.5929 37.7044L58.5072 33.0428Z" fill="white"/>
<path d="M22.9479 46.4659C22.8953 46.4671 22.8439 46.4502 22.8024 46.4178C22.7609 46.3854 22.7319 46.3397 22.7203 46.2883L21.6347 41.6271C21.621 41.5688 21.6308 41.5075 21.662 41.4564C21.6776 41.4309 21.6982 41.4087 21.7224 41.3912C21.7466 41.3736 21.774 41.361 21.8031 41.354L58.4465 32.8168C58.4756 32.81 58.5058 32.8091 58.5353 32.814C58.5648 32.819 58.5931 32.8297 58.6184 32.8455C58.6438 32.8614 58.6658 32.8821 58.6832 32.9064C58.7005 32.9308 58.7129 32.9583 58.7196 32.9875L59.8075 37.6487C59.8143 37.678 59.8152 37.7085 59.8101 37.7381C59.805 37.7678 59.7941 37.7962 59.7779 37.8217C59.7459 37.8723 59.6952 37.9083 59.6368 37.9218L22.9935 46.459C22.9786 46.463 22.9633 46.4653 22.9479 46.4659ZM22.1354 41.7455L23.1186 45.9629L59.3205 37.5417L58.3372 33.3243L22.1354 41.7455Z" fill="white"/>
<g filter="url(#filter0_d_47_1372)">
<path d="M65.8435 37.8038H32.9282C31.6272 37.8038 30.5725 38.8585 30.5725 40.1595V59.5236C30.5725 60.8246 31.6272 61.8792 32.9282 61.8792H65.8435C67.1444 61.8792 68.1991 60.8246 68.1991 59.5236V40.1595C68.1991 38.8585 67.1444 37.8038 65.8435 37.8038Z" fill="url(#paint0_linear_47_1372)"/>
</g>
<path d="M65.8435 62.1087H32.9259C32.2414 62.1075 31.5853 61.8348 31.1014 61.3506C30.6176 60.8663 30.3456 60.21 30.345 59.5254V40.159C30.3456 39.4745 30.6176 38.8181 31.1014 38.3339C31.5853 37.8496 32.2414 37.577 32.9259 37.5758H65.8435C66.5285 37.5764 67.1852 37.8488 67.6695 38.3331C68.1538 38.8174 68.4262 39.4741 68.4268 40.159V59.5254C68.4262 60.2104 68.1538 60.8671 67.6695 61.3514C67.1852 61.8357 66.5285 62.1081 65.8435 62.1087ZM32.9259 38.031C32.3621 38.0322 31.8218 38.2569 31.4233 38.6558C31.0249 39.0547 30.8008 39.5952 30.8002 40.159V59.5254C30.8002 60.0894 31.0241 60.6303 31.4227 61.0294C31.8212 61.4284 32.3619 61.6529 32.9259 61.6535H65.8435C66.4079 61.6535 66.9492 61.4293 67.3483 61.0302C67.7474 60.6311 67.9716 60.0898 67.9716 59.5254V40.159C67.971 39.5948 67.7466 39.0539 67.3476 38.655C66.9487 38.256 66.4077 38.0316 65.8435 38.031H32.9259Z" fill="url(#paint1_linear_47_1372)"/>
<path d="M56.7168 48.3688C58.1787 48.3688 59.3638 47.1837 59.3638 45.7218C59.3638 44.2599 58.1787 43.0748 56.7168 43.0748C55.2549 43.0748 54.0698 44.2599 54.0698 45.7218C54.0698 47.1837 55.2549 48.3688 56.7168 48.3688Z" fill="#FACC15"/>
<path d="M56.7167 48.5959C56.1481 48.5964 55.5921 48.4282 55.119 48.1126C54.646 47.797 54.2772 47.3482 54.0593 46.823C53.8414 46.2978 53.7841 45.7197 53.8948 45.162C54.0055 44.6042 54.2791 44.0918 54.681 43.6896C55.0829 43.2873 55.5951 43.0133 56.1528 42.9022C56.7105 42.7911 57.2885 42.8479 57.8139 43.0654C58.3393 43.2829 58.7884 43.6513 59.1044 44.1241C59.4203 44.5969 59.589 45.1527 59.589 45.7214C59.5878 46.483 59.2849 47.2131 58.7465 47.7519C58.2082 48.2906 57.4783 48.5941 56.7167 48.5959ZM56.7167 43.3043C56.238 43.3038 55.7699 43.4454 55.3717 43.7111C54.9735 43.9767 54.663 44.3546 54.4796 44.7967C54.2962 45.2389 54.2481 45.7256 54.3414 46.1951C54.4347 46.6646 54.6652 47.0959 55.0037 47.4344C55.3422 47.7729 55.7735 48.0034 56.243 48.0966C56.7125 48.1899 57.1991 48.1418 57.6413 47.9584C58.0835 47.775 58.4613 47.4646 58.727 47.0664C58.9927 46.6681 59.1342 46.2001 59.1338 45.7214C59.1326 45.0807 58.8775 44.4666 58.4245 44.0136C57.9715 43.5605 57.3574 43.3055 56.7167 43.3043Z" fill="#FACC15"/>
<path d="M60.8499 48.3688C62.3117 48.3688 63.4968 47.1837 63.4968 45.7218C63.4968 44.2599 62.3117 43.0748 60.8499 43.0748C59.388 43.0748 58.2029 44.2599 58.2029 45.7218C58.2029 47.1837 59.388 48.3688 60.8499 48.3688Z" fill="#FB923C"/>
<path d="M60.85 48.5959C60.2814 48.5964 59.7254 48.4282 59.2523 48.1126C58.7793 47.797 58.4105 47.3482 58.1926 46.823C57.9747 46.2978 57.9174 45.7197 58.0281 45.162C58.1388 44.6042 58.4124 44.0918 58.8143 43.6896C59.2162 43.2873 59.7284 43.0133 60.2861 42.9022C60.8438 42.7911 61.4218 42.8479 61.9472 43.0654C62.4726 43.2829 62.9217 43.6513 63.2377 44.1241C63.5536 44.5969 63.7223 45.1527 63.7223 45.7214C63.7211 46.483 63.4182 47.2131 62.8798 47.7519C62.3415 48.2906 61.6116 48.5941 60.85 48.5959ZM60.85 43.3043C60.3713 43.3038 59.9032 43.4454 59.505 43.7111C59.1068 43.9767 58.7963 44.3546 58.6129 44.7967C58.4295 45.2389 58.3814 45.7256 58.4747 46.1951C58.568 46.6646 58.7985 47.0959 59.137 47.4344C59.4755 47.7729 59.9068 48.0034 60.3763 48.0966C60.8458 48.1899 61.3324 48.1418 61.7746 47.9584C62.2168 47.775 62.5946 47.4646 62.8603 47.0664C63.126 46.6681 63.2675 46.2001 63.2671 45.7214C63.2659 45.0807 63.0108 44.4666 62.5578 44.0136C62.1048 43.5605 61.4907 43.3055 60.85 43.3043Z" fill="#FB923C"/>
<path d="M38.527 48.5827H35.9984C35.5748 48.5827 35.1684 48.4152 34.8678 48.1167C34.5672 47.8183 34.3968 47.4131 34.3938 46.9895V44.4518C34.3938 44.2416 34.4354 44.0335 34.5162 43.8394C34.5969 43.6454 34.7153 43.4692 34.8645 43.3212C35.0136 43.1731 35.1906 43.0559 35.3852 42.9766C35.5798 42.8972 35.7882 42.8571 35.9984 42.8586H38.527C38.9495 42.8586 39.3548 43.0264 39.6535 43.3252C39.9523 43.624 40.1202 44.0292 40.1202 44.4518V46.9804C40.1196 47.4036 39.9518 47.8094 39.6534 48.1095C39.355 48.4096 38.9502 48.5797 38.527 48.5827ZM35.9984 43.3047C35.848 43.3032 35.6988 43.3315 35.5594 43.388C35.42 43.4445 35.2932 43.5281 35.1863 43.6339C35.0794 43.7397 34.9946 43.8657 34.9367 44.0045C34.8788 44.1433 34.849 44.2922 34.849 44.4426V46.9804C34.849 47.1308 34.8788 47.2797 34.9367 47.4185C34.9946 47.5573 35.0794 47.6833 35.1863 47.7891C35.2932 47.8949 35.42 47.9785 35.5594 48.035C35.6988 48.0915 35.848 48.1199 35.9984 48.1184H38.527C38.8288 48.1184 39.1183 47.9985 39.3317 47.7851C39.5451 47.5716 39.665 47.2822 39.665 46.9804V44.4518C39.665 44.1499 39.5451 43.8605 39.3317 43.6471C39.1183 43.4337 38.8288 43.3138 38.527 43.3138L35.9984 43.3047Z" fill="#FFB9AA"/>
<path d="M40.8735 56.8351H34.6214C34.561 56.8351 34.5031 56.8111 34.4605 56.7684C34.4178 56.7258 34.3938 56.6679 34.3938 56.6075V53.9423C34.3938 53.882 34.4178 53.8241 34.4605 53.7814C34.5031 53.7387 34.561 53.7147 34.6214 53.7147H40.8735C40.9339 53.7147 40.9918 53.7387 41.0345 53.7814C41.0772 53.8241 41.1011 53.882 41.1011 53.9423V56.6075C41.1011 56.6679 41.0772 56.7258 41.0345 56.7684C40.9918 56.8111 40.9339 56.8351 40.8735 56.8351ZM34.849 56.3799H40.6459V54.1699H34.849V56.3799Z" fill="#FFB9AA"/>
<path d="M48.6326 56.8351H42.3804C42.3201 56.8351 42.2622 56.8111 42.2195 56.7684C42.1768 56.7258 42.1528 56.6679 42.1528 56.6075V53.9423C42.1528 53.882 42.1768 53.8241 42.2195 53.7814C42.2622 53.7387 42.3201 53.7147 42.3804 53.7147H48.6326C48.6929 53.7147 48.7508 53.7387 48.7935 53.7814C48.8362 53.8241 48.8602 53.882 48.8602 53.9423V56.6075C48.8602 56.6679 48.8362 56.7258 48.7935 56.7684C48.7508 56.8111 48.6929 56.8351 48.6326 56.8351ZM42.608 56.3799H48.405V54.1699H42.608V56.3799Z" fill="#FFB9AA"/>
<path d="M56.3891 56.8351H50.1392C50.0789 56.8351 50.021 56.8111 49.9783 56.7684C49.9356 56.7258 49.9116 56.6679 49.9116 56.6075V53.9423C49.9116 53.882 49.9356 53.8241 49.9783 53.7814C50.021 53.7387 50.0789 53.7147 50.1392 53.7147H56.3891C56.4494 53.7147 56.5073 53.7387 56.55 53.7814C56.5927 53.8241 56.6167 53.882 56.6167 53.9423V56.6075C56.6167 56.6679 56.5927 56.7258 56.55 56.7684C56.5073 56.8111 56.4494 56.8351 56.3891 56.8351ZM50.3668 56.3799H56.1615V54.1699H50.3668V56.3799Z" fill="#FFB9AA"/>
<path d="M64.1592 56.8351H57.898C57.8376 56.8351 57.7798 56.8111 57.7371 56.7684C57.6944 56.7258 57.6704 56.6679 57.6704 56.6075V53.9423C57.6704 53.882 57.6944 53.8241 57.7371 53.7814C57.7798 53.7387 57.8376 53.7147 57.898 53.7147H64.1592C64.2196 53.7147 64.2775 53.7387 64.3202 53.7814C64.3629 53.8241 64.3868 53.882 64.3868 53.9423V56.6075C64.3868 56.6679 64.3629 56.7258 64.3202 56.7684C64.2775 56.8111 64.2196 56.8351 64.1592 56.8351ZM58.137 56.3799H63.9316V54.1699H58.1256L58.137 56.3799Z" fill="#FFB9AA"/>
<defs>
<filter id="filter0_d_47_1372" x="6.57251" y="29.8038" width="69.6267" height="56.0754" filterUnits="userSpaceOnUse" color-interpolation-filters="sRGB">
<feFlood flood-opacity="0" result="BackgroundImageFix"/>
<feColorMatrix in="SourceAlpha" type="matrix" values="0 0 0 0 0 0 0 0 0 0 0 0 0 0 0 0 0 0 127 0" result="hardAlpha"/>
<feOffset dx="-8" dy="8"/>
<feGaussianBlur stdDeviation="8"/>
<feComposite in2="hardAlpha" operator="out"/>
<feColorMatrix type="matrix" values="0 0 0 0 0.419608 0 0 0 0 0.447059 0 0 0 0 0.501961 0 0 0 0.15 0"/>
<feBlend mode="normal" in2="BackgroundImageFix" result="effect1_dropShadow_47_1372"/>
<feBlend mode="normal" in="SourceGraphic" in2="effect1_dropShadow_47_1372" result="shape"/>
</filter>
<linearGradient id="paint0_linear_47_1372" x1="66.3449" y1="32.9334" x2="53.6894" y2="71.8967" gradientUnits="userSpaceOnUse">
<stop stop-color="#18EEC0"/>
<stop offset="1" stop-color="#407FF8"/>
</linearGradient>
<linearGradient id="paint1_linear_47_1372" x1="66.5502" y1="32.6128" x2="53.5831" y2="72.2647" gradientUnits="userSpaceOnUse">
<stop stop-color="#18EEC0"/>
<stop offset="1" stop-color="#407FF8"/>
</linearGradient>
</defs>
</svg>
