<svg width="22" height="22" viewBox="0 0 22 22" fill="none" xmlns="http://www.w3.org/2000/svg">
<g clip-path="url(#clip0_949_3051)">
<path d="M12.9562 0.843782C12.9004 0.863705 12.4621 1.27409 11.976 1.7562L11.0995 2.62878L10.9002 2.47339C10.6173 2.24628 10.3464 2.15464 9.97586 2.15464C9.71688 2.15464 9.58539 2.18253 9.08734 2.35386C8.05938 2.7005 6.82024 2.97144 5.84805 3.06308C5.49742 3.09495 5.49344 3.09495 5.44164 2.99534C5.36992 2.85987 5.15875 2.66066 4.98344 2.56902C4.85594 2.4973 4.7125 2.49331 3.11078 2.48136C1.13852 2.46941 1.12656 2.46941 0.915393 2.76425L0.799846 2.92363V5.7087C0.799846 8.79659 0.783909 8.62128 1.0668 8.83644L1.21024 8.948L2.70836 8.95995C4.03117 8.96792 4.22641 8.96394 4.3818 8.90417C4.60094 8.8205 4.84399 8.60534 4.94758 8.39816C5.02328 8.25472 5.03125 8.24675 5.11492 8.30253C5.16274 8.33441 5.24242 8.38222 5.29422 8.41409C5.36594 8.45792 5.38188 8.50573 5.38188 8.68105C5.38188 8.79659 5.40578 8.94003 5.43766 8.9998C5.46953 9.05956 6.115 9.72495 6.87203 10.482L8.25063 11.8566V12.3347C8.25063 12.7132 8.26656 12.8487 8.32633 12.9722C8.41797 13.1754 8.60922 13.3388 8.78852 13.3746L8.92797 13.3985V15.3071C8.92797 16.9845 8.92 17.2196 8.8682 17.2395C8.83234 17.2554 8.76063 17.3391 8.70883 17.4347C8.61719 17.5861 8.60922 17.6419 8.60922 18.0603V18.5225L8.47375 18.6579C8.27055 18.8611 8.24266 19.0245 8.25859 19.9409C8.27055 20.8493 8.29844 20.941 8.60125 21.1123L8.76063 21.2H14.7531H20.7496L20.8851 21.1083C20.9568 21.0605 21.0604 20.9569 21.1082 20.8852C21.1959 20.7537 21.1998 20.7178 21.1998 19.8572C21.1998 18.885 21.1759 18.7535 20.9767 18.6221C20.8851 18.5623 20.8811 18.5384 20.8811 18.1081C20.8811 17.5981 20.8412 17.4626 20.646 17.2793L20.5225 17.1598V15.2792V13.4025L20.6659 13.3786C20.7456 13.3667 20.8691 13.3069 20.9448 13.2511C21.1839 13.0678 21.1998 13.0041 21.1998 12.1275C21.1998 11.2669 21.1759 11.1553 20.9568 10.988C20.8771 10.9322 16.064 9.03964 15.0918 8.68105L14.8607 8.59737L16.2712 7.17894C17.0481 6.398 17.7135 5.70472 17.7494 5.633C17.833 5.46964 17.833 5.1748 17.7494 5.01144C17.6816 4.87198 13.9483 1.10277 13.6933 0.915501C13.5618 0.815891 13.502 0.799953 13.2948 0.803938C13.1594 0.803938 13.008 0.82386 12.9562 0.843782ZM13.6295 1.85581L13.9682 2.19847L13.8686 2.27417C13.6096 2.47339 13.2072 2.52519 12.9123 2.38972C12.5498 2.22636 12.5498 2.22238 12.9203 1.84785C13.0996 1.66456 13.259 1.51714 13.2709 1.51714C13.2829 1.51714 13.4462 1.66855 13.6295 1.85581ZM15.8409 4.15878C15.5181 4.58909 15.4185 4.86402 15.4185 5.32222C15.4185 5.72066 15.4982 5.98363 15.7094 6.29839L15.8727 6.54542L14.5977 7.82042L13.3227 9.09144L11.0158 9.98792C9.74875 10.482 8.65305 10.9163 8.58531 10.9601L8.4618 11.0318L7.89203 10.4621L7.32625 9.89628L7.46969 9.68112C7.86813 9.09144 7.86813 8.28659 7.46969 7.69691L7.32625 7.48175L8.53352 6.2705C9.19891 5.60511 9.78461 5.05128 9.83641 5.03933C9.93203 5.01144 10.0715 5.08316 10.2468 5.2505L10.3504 5.34613L10.1352 5.55331C9.8882 5.78441 9.62922 6.26652 9.56547 6.61316C9.38219 7.60128 9.92008 8.58144 10.8365 8.93206C11.98 9.36237 13.2311 8.73683 13.5698 7.55745C13.6734 7.20284 13.6375 6.6012 13.4941 6.25058C13.3865 5.98761 13.3865 5.97964 13.4582 5.85214C13.514 5.75253 13.5299 5.62902 13.5299 5.34214C13.5299 5.00745 13.518 4.93573 13.4144 4.73253C13.3148 4.52534 13.2112 4.42574 12.49 3.81613L11.6812 3.13081L11.8764 2.93159C12.0238 2.78417 12.0916 2.74433 12.1314 2.77222C12.5298 3.06706 12.745 3.15073 13.1753 3.17863C13.5817 3.20652 13.9483 3.10691 14.267 2.8798L14.4862 2.72042L15.1834 3.4137C15.7094 3.93566 15.8687 4.11894 15.8409 4.15878ZM10.2548 2.92761C10.4181 2.99933 12.6255 4.86003 12.745 5.02738C12.988 5.37003 12.7251 5.86011 12.2948 5.86011C12.0836 5.86011 12.0119 5.8123 11.1991 5.10308C10.8166 4.77238 10.4301 4.46159 10.3424 4.41378C10.1113 4.29027 9.65312 4.29425 9.40609 4.42175C9.28656 4.48152 8.65703 5.08316 7.52547 6.20675L5.82813 7.90409L5.52531 7.69292C5.36195 7.58136 5.20656 7.46183 5.17867 7.42995C5.11891 7.35823 5.52133 3.86394 5.59305 3.82011C5.62094 3.80417 5.71258 3.78823 5.80024 3.78823C6.03531 3.78823 6.97961 3.64878 7.54539 3.52925C8.09922 3.4137 8.7925 3.22245 9.38617 3.01527C9.82047 2.86386 10.0555 2.83995 10.2548 2.92761ZM4.71649 3.27027C4.77227 3.31409 4.82805 3.38581 4.84 3.42167C4.85594 3.46152 4.74836 4.48152 4.60492 5.68878C4.46149 6.90003 4.34594 7.91206 4.34594 7.94792C4.34594 7.9798 4.29813 8.05948 4.24235 8.12722L4.13875 8.25073H2.82789H1.51703V5.72066V3.19058H3.06695C4.56109 3.19058 4.61688 3.19456 4.71649 3.27027ZM16.7493 5.66886L16.4066 6.0155L16.3309 5.91988C16.2074 5.7605 16.1397 5.55331 16.1397 5.3262C16.1397 5.08316 16.1795 4.94769 16.311 4.75644L16.3987 4.62495L16.7493 4.97558L17.0959 5.32222L16.7493 5.66886ZM11.2429 6.11511C11.6891 6.49362 11.8246 6.55339 12.2549 6.55737C12.4541 6.55737 12.6613 6.54144 12.7211 6.5255C12.8207 6.49362 12.8287 6.50159 12.8725 6.66495C12.9004 6.75659 12.9123 6.9598 12.9044 7.11519C12.8805 7.46183 12.753 7.72878 12.494 7.96784C12.2191 8.22284 11.9999 8.30652 11.6174 8.3105C11.3345 8.3105 11.2668 8.29456 11.0317 8.17902C10.5695 7.95191 10.3185 7.57339 10.2906 7.05941C10.2667 6.64503 10.3783 6.35816 10.6652 6.07128C10.7807 5.95573 10.8923 5.86011 10.9122 5.86011C10.9321 5.86011 11.0795 5.97566 11.2429 6.11511ZM6.92383 8.19894C7.01945 8.3623 7.03539 8.43402 7.03539 8.68902C7.03539 8.948 7.01945 9.01573 6.91984 9.18308L6.80828 9.37433L6.44969 9.0237L6.09508 8.66909L6.44172 8.33839C6.62899 8.15909 6.79234 8.01167 6.80031 8.01167C6.80828 8.01167 6.86406 8.09534 6.92383 8.19894ZM17.6139 10.4382L20.4627 11.5458L20.4747 12.1116L20.4866 12.6734H14.7252H8.96781V12.1196V11.5657L9.39812 11.3984C9.6332 11.3107 10.9202 10.8087 12.2549 10.2828C13.5937 9.76081 14.7053 9.33448 14.7252 9.3305C14.7491 9.3305 16.048 9.82855 17.6139 10.4382ZM10.2827 15.2433V17.096H9.96391H9.64516V15.2433V13.3906H9.96391H10.2827V15.2433ZM13.7092 15.2871V17.1837L13.6056 17.2674C13.4223 17.4108 13.3506 17.63 13.3506 18.0603V18.4507H12.3545H11.3584V18.0523C11.3584 17.6021 11.3146 17.4586 11.1234 17.2793L10.9998 17.1598V15.2752V13.3906H12.3545H13.7092V15.2871ZM15.0639 15.2433V17.096H14.7452H14.4264V15.2433V13.3906H14.7452H15.0639V15.2433ZM18.4506 15.3031C18.4506 17.1717 18.4506 17.2156 18.3709 17.2554C18.2036 17.3431 18.1319 17.5782 18.1319 18.0324V18.4507H17.1159H16.0998V18.0284C16.0998 17.5702 16.048 17.3949 15.8767 17.2594L15.7811 17.1837V15.2871V13.3906H17.1159H18.4506V15.3031ZM19.8053 15.2433V17.096H19.4866H19.1678V15.2433V13.3906H19.4866H19.8053V15.2433ZM10.6412 18.132V18.4507H9.98383H9.32641V18.132V17.8132H9.98383H10.6412V18.132ZM15.3827 18.132V18.4507H14.7252H14.0678V18.132V17.8132H14.7252H15.3827V18.132ZM20.1639 18.132V18.4507H19.5065H18.8491V18.132V17.8132H19.5065H20.1639V18.132ZM20.4827 19.8253V20.4828H14.7252H8.96781V19.8253V19.1679H14.7252H20.4827V19.8253Z" fill="url(#paint0_linear_949_3051)"/>
<path d="M13.9602 10.9879C13.7251 11.0318 13.6295 11.4023 13.8088 11.5776C13.9044 11.6772 13.9084 11.6772 14.7331 11.6772C15.6655 11.6772 15.7173 11.6653 15.7651 11.4143C15.781 11.3346 15.7731 11.231 15.7452 11.1752C15.6655 10.9959 15.4942 10.9601 14.7371 10.964C14.3586 10.968 14.008 10.98 13.9602 10.9879Z" fill="url(#paint1_linear_949_3051)"/>
</g>
<defs>
<linearGradient id="paint0_linear_949_3051" x1="20.1946" y1="25.3262" x2="5.4671" y2="-3.69113" gradientUnits="userSpaceOnUse">
<stop stop-color="#18EEC0"/>
<stop offset="1" stop-color="#407FF8"/>
</linearGradient>
<linearGradient id="paint1_linear_949_3051" x1="15.6718" y1="11.8216" x2="15.4539" y2="10.5834" gradientUnits="userSpaceOnUse">
<stop stop-color="#18EEC0"/>
<stop offset="1" stop-color="#407FF8"/>
</linearGradient>
<clipPath id="clip0_949_3051">
<rect width="20.4" height="20.4" fill="white" transform="translate(0.799805 0.800049)"/>
</clipPath>
</defs>
</svg>
