<svg width="40" height="41" viewBox="0 0 40 41" fill="none" xmlns="http://www.w3.org/2000/svg">
<rect x="-0.000335693" y="0.104004" width="40" height="40" rx="12" fill="#F9FAFB"/>
<path d="M16.6663 16.7705C16.6663 16.1075 16.9736 15.4716 17.5206 15.0027C18.0676 14.5339 18.8095 14.2705 19.583 14.2705H20.4163C21.1899 14.2705 21.9317 14.5339 22.4787 15.0027C23.0257 15.4716 23.333 16.1075 23.333 16.7705C23.3637 17.3116 23.2177 17.8479 22.9171 18.2988C22.6165 18.7497 22.1776 19.0907 21.6663 19.2705C21.1551 19.5102 20.7161 19.9649 20.4155 20.5661C20.1149 21.1673 19.969 21.8824 19.9997 22.6038M19.9997 25.9372V25.9455" stroke="#55BBC5" stroke-width="1.5" stroke-linecap="round" stroke-linejoin="round"/>
</svg>
