<svg width="40" height="41" viewBox="0 0 40 41" fill="none" xmlns="http://www.w3.org/2000/svg">
<rect x="-0.000335693" y="0.104004" width="40" height="40" rx="12" fill="#F9FAFB"/>
<path d="M11.1937 21.9575C10.935 20.7354 10.935 19.4726 11.1937 18.2505C12.1925 18.3675 13.0652 18.0373 13.3496 17.3498C13.6348 16.6615 13.2524 15.8113 12.4624 15.1877C13.1435 14.1407 14.0364 13.2479 15.0834 12.5667C15.706 13.3558 16.5572 13.7391 17.2455 13.4539C17.9338 13.1687 18.264 12.2968 18.1462 11.2981C19.3683 11.0393 20.631 11.0393 21.8532 11.2981C21.7362 12.2968 22.0664 13.1696 22.7538 13.4539C23.4421 13.7391 24.2924 13.3567 24.9159 12.5667C25.963 13.2479 26.8558 14.1407 27.5369 15.1877C26.7478 15.8104 26.3646 16.6615 26.6498 17.3498C26.935 18.0382 27.8069 18.3684 28.8056 18.2505C29.0644 19.4726 29.0644 20.7354 28.8056 21.9575C27.8069 21.8405 26.9341 22.1707 26.6498 22.8582C26.3646 23.5465 26.7469 24.3967 27.5369 25.0203C26.8558 26.0673 25.963 26.9601 24.9159 27.6413C24.2933 26.8522 23.4421 26.4689 22.7538 26.7541C22.0655 27.0393 21.7353 27.9112 21.8532 28.9099C20.631 29.1687 19.3683 29.1687 18.1462 28.9099C18.2631 27.9112 17.9329 27.0384 17.2455 26.7541C16.5572 26.4689 15.7069 26.8513 15.0834 27.6413C14.0364 26.9601 13.1435 26.0673 12.4624 25.0203C13.2515 24.3976 13.6348 23.5465 13.3496 22.8582C13.0643 22.1698 12.1925 21.8396 11.1937 21.9575ZM12.8016 20.293C13.7913 20.5674 14.6074 21.1945 15.0123 22.1698C15.4163 23.1461 15.2822 24.1673 14.7766 25.0599C14.8629 25.1516 14.952 25.2407 15.0438 25.3271C15.9373 24.8214 16.9576 24.6883 17.9338 25.0914C18.9092 25.4963 19.5363 26.3123 19.8107 27.3021C19.9367 27.3057 20.0626 27.3057 20.1886 27.3021C20.463 26.3123 21.0902 25.4963 22.0655 25.0914C23.0417 24.6874 24.063 24.8214 24.9555 25.3271C25.0473 25.2407 25.1364 25.1516 25.2228 25.0599C24.7171 24.1664 24.5839 23.1461 24.987 22.1698C25.3919 21.1945 26.208 20.5674 27.1977 20.293C27.2013 20.167 27.2013 20.041 27.1977 19.9151C26.208 19.6406 25.3919 19.0135 24.987 18.0382C24.583 17.0619 24.7171 16.0407 25.2228 15.1481C25.1361 15.0567 25.0469 14.9676 24.9555 14.8809C24.0621 15.3866 23.0417 15.5197 22.0655 15.1166C21.0902 14.7118 20.463 13.8957 20.1886 12.9059C20.0627 12.9026 19.9367 12.9026 19.8107 12.9059C19.5363 13.8957 18.9092 14.7118 17.9338 15.1166C16.9576 15.5206 15.9364 15.3866 15.0438 14.8809C14.952 14.9673 14.8629 15.0564 14.7766 15.1481C15.2822 16.0416 15.4154 17.0619 15.0123 18.0382C14.6074 19.0135 13.7913 19.6406 12.8016 19.9151C12.798 20.041 12.798 20.167 12.8016 20.293ZM19.9997 22.8033C19.2838 22.8033 18.5972 22.5189 18.091 22.0127C17.5848 21.5065 17.3004 20.8199 17.3004 20.104C17.3004 19.3881 17.5848 18.7015 18.091 18.1953C18.5972 17.6891 19.2838 17.4047 19.9997 17.4047C20.7156 17.4047 21.4021 17.6891 21.9083 18.1953C22.4145 18.7015 22.6989 19.3881 22.6989 20.104C22.6989 20.8199 22.4145 21.5065 21.9083 22.0127C21.4021 22.5189 20.7156 22.8033 19.9997 22.8033ZM19.9997 21.0038C20.2383 21.0038 20.4672 20.909 20.6359 20.7402C20.8046 20.5715 20.8994 20.3426 20.8994 20.104C20.8994 19.8654 20.8046 19.6365 20.6359 19.4678C20.4672 19.299 20.2383 19.2042 19.9997 19.2042C19.761 19.2042 19.5322 19.299 19.3634 19.4678C19.1947 19.6365 19.0999 19.8654 19.0999 20.104C19.0999 20.3426 19.1947 20.5715 19.3634 20.7402C19.5322 20.909 19.761 21.0038 19.9997 21.0038Z" fill="#5FA8EE"/>
</svg>
