<svg width="40" height="41" viewBox="0 0 40 41" fill="none" xmlns="http://www.w3.org/2000/svg">
<rect x="-0.000335693" y="0.104004" width="40" height="40" rx="12" fill="#F9FAFB"/>
<path d="M26.6413 18.4375H13.308V25.1042C13.308 27.6042 14.1413 28.4375 16.6413 28.4375H23.308C25.808 28.4375 26.6413 27.6042 26.6413 25.1042V18.4375Z" stroke="#D63484" stroke-width="1.2" stroke-miterlimit="10" stroke-linecap="round" stroke-linejoin="round"/>
<path d="M27.9163 15.9372V16.7705C27.9163 17.6872 27.4747 18.4372 26.2497 18.4372H13.7497C12.4747 18.4372 12.083 17.6872 12.083 16.7705V15.9372C12.083 15.0205 12.4747 14.2705 13.7497 14.2705H26.2497C27.4747 14.2705 27.9163 15.0205 27.9163 15.9372Z" stroke="#D63484" stroke-width="1.2" stroke-miterlimit="10" stroke-linecap="round" stroke-linejoin="round"/>
<path d="M19.6997 14.2709H15.0997C14.8163 13.9625 14.8247 13.4875 15.1247 13.1875L16.308 12.0042C16.6163 11.6959 17.1247 11.6959 17.433 12.0042L19.6997 14.2709Z" stroke="#D63484" stroke-width="1.2" stroke-miterlimit="10" stroke-linecap="round" stroke-linejoin="round"/>
<path d="M24.8913 14.2709H20.2913L22.558 12.0042C22.8663 11.6959 23.3747 11.6959 23.683 12.0042L24.8663 13.1875C25.1663 13.4875 25.1747 13.9625 24.8913 14.2709Z" stroke="#D63484" stroke-width="1.2" stroke-miterlimit="10" stroke-linecap="round" stroke-linejoin="round"/>
<path d="M17.4497 18.4375V22.7208C17.4497 23.3875 18.183 23.7792 18.7413 23.4208L19.5247 22.9042C19.808 22.7208 20.1663 22.7208 20.4413 22.9042L21.183 23.4042C21.733 23.7708 22.4747 23.3792 22.4747 22.7125V18.4375H17.4497Z" stroke="#D63484" stroke-width="1.2" stroke-miterlimit="10" stroke-linecap="round" stroke-linejoin="round"/>
</svg>
