<svg width="19" height="18" viewBox="0 0 19 18" fill="none" xmlns="http://www.w3.org/2000/svg">
<path d="M15.1445 7.5H3.14453V13.5C3.14453 15.75 3.89453 16.5 6.14453 16.5H12.1445C14.3945 16.5 15.1445 15.75 15.1445 13.5V7.5Z" stroke="white" stroke-width="1.2" stroke-miterlimit="10" stroke-linecap="round" stroke-linejoin="round"/>
<path d="M16.292 5.25V6C16.292 6.825 15.8945 7.5 14.792 7.5H3.54199C2.39449 7.5 2.04199 6.825 2.04199 6V5.25C2.04199 4.425 2.39449 3.75 3.54199 3.75H14.792C15.8945 3.75 16.292 4.425 16.292 5.25Z" stroke="white" stroke-width="1.2" stroke-miterlimit="10" stroke-linecap="round" stroke-linejoin="round"/>
<path d="M8.89708 3.74996H4.75707C4.50207 3.47246 4.50957 3.04496 4.77957 2.77496L5.84457 1.70996C6.12208 1.43246 6.57958 1.43246 6.85708 1.70996L8.89708 3.74996Z" stroke="white" stroke-width="1.2" stroke-miterlimit="10" stroke-linecap="round" stroke-linejoin="round"/>
<path d="M13.5697 3.74996H9.42969L11.4697 1.70996C11.7472 1.43246 12.2047 1.43246 12.4822 1.70996L13.5472 2.77496C13.8172 3.04496 13.8247 3.47246 13.5697 3.74996Z" stroke="white" stroke-width="1.2" stroke-miterlimit="10" stroke-linecap="round" stroke-linejoin="round"/>
<path d="M6.87207 7.5V11.355C6.87207 11.955 7.53207 12.3075 8.03457 11.985L8.73957 11.52C8.99457 11.355 9.31707 11.355 9.56457 11.52L10.2321 11.97C10.7271 12.3 11.3946 11.9475 11.3946 11.3475V7.5H6.87207Z" stroke="white" stroke-width="1.2" stroke-miterlimit="10" stroke-linecap="round" stroke-linejoin="round"/>
</svg>
