<svg width="24" height="24" viewBox="0 0 24 24" fill="none" xmlns="http://www.w3.org/2000/svg">
<path d="M14.5297 9.46998L9.46968 14.53C8.81968 13.88 8.41968 12.99 8.41968 12C8.41968 10.02 10.0197 8.41998 11.9997 8.41998C12.9897 8.41998 13.8797 8.81998 14.5297 9.46998Z" stroke="#9DB2BF" stroke-width="1.5" stroke-linecap="round" stroke-linejoin="round"/>
<path d="M17.8196 5.76998C16.0696 4.44998 14.0696 3.72998 11.9996 3.72998C8.4696 3.72998 5.1796 5.80998 2.8896 9.40998C1.9896 10.82 1.9896 13.19 2.8896 14.6C3.6796 15.84 4.5996 16.91 5.5996 17.77" stroke="#9DB2BF" stroke-width="1.5" stroke-linecap="round" stroke-linejoin="round"/>
<path d="M8.41968 19.53C9.55968 20.01 10.7697 20.27 11.9997 20.27C15.5297 20.27 18.8197 18.19 21.1097 14.59C22.0097 13.18 22.0097 10.81 21.1097 9.39999C20.7797 8.87999 20.4197 8.38999 20.0497 7.92999" stroke="#9DB2BF" stroke-width="1.5" stroke-linecap="round" stroke-linejoin="round"/>
<path d="M15.5096 12.7C15.2496 14.11 14.0996 15.26 12.6896 15.52" stroke="#9DB2BF" stroke-width="1.5" stroke-linecap="round" stroke-linejoin="round"/>
<path d="M9.46963 14.53L1.99963 22" stroke="#9DB2BF" stroke-width="1.5" stroke-linecap="round" stroke-linejoin="round"/>
<path d="M21.9997 2L14.5297 9.47" stroke="#9DB2BF" stroke-width="1.5" stroke-linecap="round" stroke-linejoin="round"/>
</svg>
