<svg width="40" height="41" viewBox="0 0 40 41" fill="none" xmlns="http://www.w3.org/2000/svg">
<rect x="-0.000335693" y="0.104004" width="40" height="40" rx="12" fill="#F9FAFB"/>
<path d="M14.3526 23.0514V24.7356C14.3525 25.1605 14.5019 25.5697 14.771 25.8813C15.0401 26.1929 15.409 26.3837 15.8036 26.4156L15.9212 26.4198H18.2742V28.104H15.9212C15.0892 28.104 14.2912 27.7491 13.7029 27.1174C13.1145 26.4857 12.784 25.6289 12.784 24.7356V23.0514H14.3526ZM24.5487 18.8408L27.9997 28.104H26.3095L25.3675 25.5777H22.1597L21.2193 28.104H19.5299L22.9801 18.8408H24.5487ZM23.7644 21.2703L22.7863 23.8935H24.7408L23.7644 21.2703ZM16.7055 12.104V13.7882H19.8428V19.683H16.7055V22.2093H15.1369V19.683H11.9997V13.7882H15.1369V12.104H16.7055ZM23.7644 12.9461C24.5964 12.9461 25.3944 13.301 25.9827 13.9327C26.5711 14.5644 26.9016 15.4212 26.9016 16.3145V17.9987H25.333V16.3145C25.333 15.8678 25.1677 15.4395 24.8736 15.1236C24.5794 14.8078 24.1804 14.6303 23.7644 14.6303H21.4114V12.9461H23.7644ZM15.1369 15.4724H13.5683V17.9987H15.1369V15.4724ZM18.2742 15.4724H16.7055V17.9987H18.2742V15.4724Z" fill="#7B61FF"/>
</svg>
