<svg width="41" height="40" viewBox="0 0 41 40" fill="none" xmlns="http://www.w3.org/2000/svg">
<rect x="0.0432129" width="40" height="40" rx="12" fill="#F9FAFB"/>
<path d="M24.4645 23.1217L25.1716 23.8288L28 21.0003L25.1716 18.1719L24.4644 18.879L26.0858 20.5003H19V21.5003H26.0858L24.4645 23.1217Z" fill="black"/>
<path d="M25.2341 25.2427C24.1009 26.3759 22.5943 27 20.9917 27C19.389 27 17.8822 26.3759 16.7489 25.2427C15.6155 24.1094 15 22.6027 15 21C15 19.3975 15.6155 17.8908 16.7489 16.7575C17.8822 15.6242 19.3891 15 20.9917 15C22.5942 15 24.1008 15.6242 25.2341 16.7574C25.3127 16.8362 25.3891 16.9171 25.4633 17H26.7361C25.4713 15.1866 23.3702 14 20.9917 14C17.1257 14 14 17.1343 14 21C14 24.8661 17.1257 28 20.9917 28C23.3702 28 25.4714 26.8134 26.7362 25H25.4634C25.3892 25.083 25.3127 25.1639 25.2341 25.2427Z" fill="black"/>
</svg>
