<svg width="48" height="48" viewBox="0 0 48 48" fill="none" xmlns="http://www.w3.org/2000/svg">
<rect x="-0.000335693" width="48" height="48" rx="12" fill="#F9FAFB"/>
<path d="M23.9995 13.9962C28.0495 13.9962 31.3562 17.191 31.4953 21.2453L31.4995 21.4962V25.5932L32.8795 28.7492C32.9486 28.9071 32.9842 29.0776 32.9842 29.25C32.9842 29.9403 32.4246 30.5 31.7342 30.5L26.9995 30.5015C26.9995 32.1583 25.6564 33.5015 23.9995 33.5015C22.4019 33.5015 21.0959 32.2526 21.0046 30.6778L20.9991 30.4992L16.2744 30.5C16.1031 30.5 15.9335 30.4648 15.7764 30.3965C15.1432 30.1215 14.8528 29.3852 15.1279 28.752L16.4995 25.5941V21.4961C16.5001 17.3413 19.8516 13.9962 23.9995 13.9962ZM25.4991 30.4992L22.4995 30.5015C22.4995 31.3299 23.1711 32.0015 23.9995 32.0015C24.7792 32.0015 25.42 31.4066 25.4927 30.6459L25.4991 30.4992ZM23.9995 15.4962C20.6794 15.4962 18 18.1705 17.9995 21.4962V25.9058L16.6556 29H31.3521L29.9995 25.9068L29.9996 21.5091L29.9959 21.2839C29.8848 18.0504 27.2411 15.4962 23.9995 15.4962Z" fill="#1D2734"/>
<circle cx="30.9997" cy="17" r="4.5" fill="#1D3A70" stroke="white"/>
</svg>
