<svg width="24" height="25" viewBox="0 0 24 25" fill="none" xmlns="http://www.w3.org/2000/svg">
<path d="M12 18.1237C12.9002 18.1237 13.63 17.3939 13.63 16.4937C13.63 15.5935 12.9002 14.8637 12 14.8637C11.0998 14.8637 10.37 15.5935 10.37 16.4937C10.37 17.3939 11.0998 18.1237 12 18.1237Z" fill="url(#paint0_linear_286_1138)"/>
<path d="M16.65 10.2137H7.35C7.27 10.2137 7.2 10.2137 7.12 10.2137V9.05368C7.12 6.12368 7.95 4.17368 12 4.17368C16.33 4.17368 16.88 6.28368 16.88 8.12368C16.88 8.51368 17.19 8.82368 17.58 8.82368C17.97 8.82368 18.28 8.51368 18.28 8.12368C18.28 4.57368 16.17 2.77368 12 2.77368C6.37 2.77368 5.72 6.35368 5.72 9.05368V10.3037C2.92 10.6537 2 12.0737 2 15.5637V17.4237C2 21.5237 3.25 22.7737 7.35 22.7737H16.65C20.75 22.7737 22 21.5237 22 17.4237V15.5637C22 11.4637 20.75 10.2137 16.65 10.2137ZM12 19.5137C10.33 19.5137 8.98 18.1537 8.98 16.4937C8.98 14.8237 10.34 13.4737 12 13.4737C13.66 13.4737 15.02 14.8337 15.02 16.4937C15.02 18.1637 13.67 19.5137 12 19.5137Z" fill="url(#paint1_linear_286_1138)"/>
<defs>
<linearGradient id="paint0_linear_286_1138" x1="13.4693" y1="14.2042" x2="11.1152" y2="18.8417" gradientUnits="userSpaceOnUse">
<stop stop-color="#18EEC0"/>
<stop offset="1" stop-color="#407FF8"/>
</linearGradient>
<linearGradient id="paint1_linear_286_1138" x1="21.0144" y1="-1.27235" x2="6.57181" y2="27.1788" gradientUnits="userSpaceOnUse">
<stop stop-color="#18EEC0"/>
<stop offset="1" stop-color="#407FF8"/>
</linearGradient>
</defs>
</svg>
