<svg width="48" height="48" viewBox="0 0 48 48" fill="none" xmlns="http://www.w3.org/2000/svg">
<rect x="-0.000335693" width="48" height="48" rx="12" fill="#F9FAFB"/>
<g clip-path="url(#clip0_123_1329)">
<path d="M22.0106 10.2734C21.7974 10.4648 21.677 10.7547 21.7263 10.9898C21.7864 11.3016 23.3013 14.5664 23.4599 14.7305C23.6075 14.8836 23.6513 14.8945 24.0013 14.8945C24.3513 14.8945 24.395 14.8836 24.5427 14.7305C24.7013 14.5664 26.2161 11.3016 26.2763 10.9898C26.3255 10.7547 26.2052 10.4648 25.9919 10.2734L25.8005 10.1094H24.0013H22.202L22.0106 10.2734Z" fill="#1D2734"/>
<path d="M19.8997 12.5211C18.3958 13.1282 17.2145 13.9266 16.0661 15.1243C14.6114 16.6446 13.6544 18.5094 13.2224 20.6532C13.0583 21.4789 13.0145 23.2727 13.1458 24.186C13.6544 27.8555 15.9185 30.9563 19.2489 32.5532C20.7692 33.2805 21.945 33.5649 23.6513 33.6086C25.62 33.6633 27.0692 33.3625 28.7536 32.5532C32.0895 30.9453 34.3481 27.85 34.8567 24.186C34.977 23.3547 34.9442 21.5555 34.802 20.7735C34.195 17.443 32.1114 14.5774 29.1419 12.9914C28.6825 12.7453 27.4028 12.2149 27.3645 12.2532C27.3263 12.286 26.4075 14.3313 26.4075 14.375C26.4075 14.4024 26.5716 14.4735 26.7794 14.5446C27.7692 14.8672 29.0161 15.611 29.8091 16.3383C31.1052 17.5414 31.9911 19.0727 32.4067 20.8282C32.6091 21.6813 32.6419 23.1633 32.4888 24.0875C31.8872 27.5875 29.3442 30.2672 25.8333 31.0985C25.281 31.2297 25.1333 31.2407 24.0286 31.2461C22.9677 31.2461 22.7599 31.2297 22.2567 31.1203C18.2153 30.2125 15.4153 26.7727 15.4099 22.7149C15.4099 21.3094 15.656 20.2102 16.2356 18.9961C17.2364 16.9016 19.1013 15.2391 21.2286 14.5446C21.431 14.4735 21.595 14.4024 21.595 14.375C21.595 14.2985 20.6489 12.2422 20.6161 12.2422C20.5997 12.2422 20.277 12.368 19.8997 12.5211Z" fill="#1D3A70"/>
<path d="M22.1692 15.7805C22.1091 15.7969 22.0434 15.8242 22.0161 15.8461C21.9942 15.868 22.377 16.8578 22.8692 18.0445L23.7606 20.1992H24.0013H24.2364L25.1278 18.0445C25.62 16.8633 26.0138 15.8734 25.9974 15.8516C25.9864 15.8297 25.8934 15.7969 25.8005 15.775C25.6638 15.7477 25.5927 15.7695 25.4669 15.8844C24.6684 16.5516 23.4653 16.5789 22.6341 15.95C22.4809 15.8352 22.3388 15.7477 22.3169 15.7477C22.295 15.7531 22.2294 15.7641 22.1692 15.7805Z" fill="#1D2734"/>
<path d="M20.0091 16.7648C19.402 17.175 18.4724 18.0992 18.0731 18.7117C17.8981 18.9742 17.7669 19.2203 17.7833 19.2586C17.7997 19.2969 18.7731 19.7289 19.9544 20.2156L22.0927 21.1016L22.2567 20.9375L22.4208 20.7789L21.5294 18.6297C20.9661 17.2734 20.6052 16.475 20.5559 16.4695C20.5122 16.4586 20.2661 16.5953 20.0091 16.7648Z" fill="#1D2734"/>
<path d="M27.3481 16.5461C27.3153 16.6008 26.9106 17.5742 26.4403 18.7117L25.5872 20.7789L25.7458 20.943L25.9099 21.1016L28.0481 20.2156C29.2294 19.7289 30.2028 19.3023 30.2192 19.2586C30.2739 19.1219 29.6177 18.2359 29.038 17.6508C28.5185 17.1367 27.6216 16.4531 27.4575 16.4531C27.4247 16.4531 27.3755 16.4969 27.3481 16.5461Z" fill="#1D2734"/>
<path d="M17.1161 20.7899C16.9684 21.1782 16.8809 22.0586 16.9028 22.9227C16.9302 23.7375 17.045 24.5469 17.1599 24.6727C17.1817 24.6946 18.1716 24.3118 19.3583 23.8196L21.513 22.9282V22.6875V22.4469L19.3583 21.5555C18.1716 21.0633 17.1927 20.6641 17.1817 20.6641C17.1708 20.6641 17.1434 20.7188 17.1161 20.7899Z" fill="#1D2734"/>
<path d="M28.6224 21.561L26.4895 22.4524V22.6875V22.9227L28.6442 23.8196C29.831 24.3118 30.8208 24.6946 30.8427 24.6727C30.8645 24.6453 30.9247 24.4321 30.9849 24.1914C31.127 23.5625 31.1216 21.6977 30.9685 21.1071C30.9083 20.8828 30.8372 20.6969 30.8099 20.686C30.777 20.6805 29.7981 21.0743 28.6224 21.561Z" fill="#1D2734"/>
<path d="M23.52 21.7907C23.2138 21.9493 23.0497 22.2118 23.0278 22.6055C22.9841 23.2454 23.3067 23.6227 23.9192 23.661C24.5591 23.7047 24.9364 23.3821 24.9747 22.7696C25.002 22.354 24.8927 22.0915 24.6138 21.8782C24.3677 21.6922 23.8044 21.6485 23.52 21.7907Z" fill="#1D3A70"/>
<path d="M19.9325 25.1649C18.7622 25.6516 17.7942 26.0836 17.7778 26.1219C17.7341 26.2586 18.3958 27.15 18.9645 27.7242C19.5497 28.3039 20.4356 28.9602 20.5724 28.9055C20.6161 28.8891 21.0427 27.9156 21.5294 26.7344L22.4153 24.5961L22.2567 24.4321C22.1692 24.3446 22.0872 24.2735 22.0763 24.2789C22.0653 24.2789 21.1028 24.6781 19.9325 25.1649Z" fill="#1D2734"/>
<path d="M25.7349 24.4375L25.5872 24.5961L26.4731 26.7399C26.9599 27.9156 27.3919 28.8891 27.4302 28.9055C27.5669 28.9602 28.4583 28.3039 29.038 27.7242C29.5794 27.1828 30.2356 26.3024 30.2356 26.1274C30.2356 26.0781 29.4645 25.7336 28.1411 25.1922C26.9927 24.7219 26.0138 24.3227 25.97 24.3063C25.9263 24.2899 25.8224 24.35 25.7349 24.4375Z" fill="#1D2734"/>
<path d="M23.706 25.3234C22.4153 28.4133 21.9833 29.4961 22.0161 29.5289C22.0435 29.5508 22.2567 29.6109 22.4974 29.6711C23.1153 29.8133 24.8708 29.8133 25.5052 29.6711C25.7458 29.6164 25.9591 29.5562 25.981 29.5344C26.0083 29.507 25.6255 28.5172 25.1333 27.3304L24.2419 25.1758L24.0122 25.1594C23.7935 25.1429 23.777 25.1539 23.706 25.3234Z" fill="#1D2734"/>
<path d="M18.9974 35.3203L18.62 36.3594H17.8599H17.0997L16.8864 36.5727C16.6841 36.7695 16.6731 36.8023 16.6731 37.1195C16.6731 37.4258 16.6895 37.475 16.8591 37.6609L17.045 37.8633L23.9356 37.8797L30.8208 37.8906L31.0067 37.7648C31.2692 37.5898 31.3349 37.4258 31.313 37.0539C31.2966 36.7859 31.2692 36.7094 31.1216 36.5617L30.9466 36.3867L30.1645 36.3703L29.3825 36.3539L29.0052 35.3148C28.8028 34.7461 28.6114 34.2812 28.5786 34.2812C28.5513 34.2812 28.3161 34.3523 28.0536 34.4398C26.5005 34.9758 24.9364 35.1891 23.2575 35.0961C22.1364 35.0305 20.8075 34.7625 19.8013 34.3906C19.6427 34.3305 19.4841 34.2812 19.4458 34.2812C19.402 34.2812 19.2161 34.7188 18.9974 35.3203Z" fill="#1D2734"/>
</g>
<defs>
<clipPath id="clip0_123_1329">
<rect width="27.8617" height="27.7812" fill="white" transform="translate(10.0688 10.1094)"/>
</clipPath>
</defs>
</svg>
