<svg width="25" height="24" viewBox="0 0 25 24" fill="none" xmlns="http://www.w3.org/2000/svg">
<path d="M12.5 22C18.0228 22 22.5 17.5228 22.5 12C22.5 6.47715 18.0228 2 12.5 2C6.97715 2 2.5 6.47715 2.5 12C2.5 17.5228 6.97715 22 12.5 22Z" stroke="#1D3A70" stroke-width="1.5" stroke-linecap="round" stroke-linejoin="round"/>
<path d="M8.50986 14.5101C8.68986 14.8101 8.90985 15.0901 9.15985 15.3401C10.9999 17.1801 13.9898 17.1801 15.8398 15.3401C16.5898 14.5901 17.0199 13.64 17.1599 12.67" stroke="black" stroke-width="1.5" stroke-linecap="round" stroke-linejoin="round"/>
<path d="M7.83984 11.3301C7.97984 10.3501 8.40985 9.41003 9.15985 8.66003C10.9999 6.82003 13.9898 6.82003 15.8398 8.66003C16.0998 8.92003 16.3098 9.20005 16.4898 9.49005" stroke="black" stroke-width="1.5" stroke-linecap="round" stroke-linejoin="round"/>
<path d="M8.32031 17.18V14.51H10.9903" stroke="black" stroke-width="1.5" stroke-linecap="round" stroke-linejoin="round"/>
<path d="M16.6798 6.82007V9.49005H14.0099" stroke="black" stroke-width="1.5" stroke-linecap="round" stroke-linejoin="round"/>
</svg>
