<svg width="48" height="49" viewBox="0 0 48 49" fill="none" xmlns="http://www.w3.org/2000/svg">
<rect y="0.103516" width="48" height="48" rx="12" fill="#F9FAFB"/>
<g clip-path="url(#clip0_1616_3210)">
<path d="M26.2354 23.377H30.8562M17.1445 15.4287H30.8562M26.2354 26.1824H30.8562" stroke="#1D3A70" stroke-linecap="round"/>
<path d="M32.3327 17.6885H15.666C14.9757 17.6885 14.416 18.2641 14.416 18.9742V30.5062C14.416 31.2163 14.9757 31.7919 15.666 31.7919H32.3327C33.023 31.7919 33.5827 31.2163 33.5827 30.5062V18.9742C33.5827 18.2641 33.023 17.6885 32.3327 17.6885Z" stroke="#1D3A70"/>
<path d="M20.3649 25.0916C21.4736 25.0916 22.3724 24.1672 22.3724 23.0268C22.3724 21.8864 21.4736 20.9619 20.3649 20.9619C19.2562 20.9619 18.3574 21.8864 18.3574 23.0268C18.3574 24.1672 19.2562 25.0916 20.3649 25.0916Z" stroke="#1D3A70"/>
<path d="M17.1641 28.2076C17.2541 27.2965 17.6291 26.6185 18.1407 26.1514C18.7366 25.6062 19.5432 25.3242 20.3632 25.3242C21.1841 25.3242 21.9907 25.6071 22.5866 26.1514C23.0982 26.6194 23.4732 27.2965 23.5624 28.2076H17.1641Z" stroke="#1D3A70"/>
</g>
<defs>
<clipPath id="clip0_1616_3210">
<rect width="20" height="18" fill="white" transform="translate(14 15)"/>
</clipPath>
</defs>
</svg>
